<svg width="174" height="50" viewBox="0 0 174 50" fill="none" xmlns="http://www.w3.org/2000/svg">
<g clip-path="url(#clip0_1_2)">
<path d="M51.5819 18.854C50.0969 15.265 47.7053 12.1312 44.6456 9.76494C41.5858 7.39869 37.9646 5.88262 34.143 5.36781C30.3214 4.85301 26.4328 5.35745 22.8646 6.83086C19.2965 8.30427 16.1735 10.6952 13.8068 13.7654C11.4402 16.8355 9.9125 20.4777 9.37609 24.329C8.83968 28.1802 9.31325 32.106 10.7496 35.7151C12.186 39.3242 14.535 42.4906 17.5625 44.8987C20.59 47.3068 24.1903 48.8726 28.0046 49.4399C27.505 47.6238 26.9967 45.6166 26.5488 43.4878C27.8519 44.3405 29.2235 45.0816 30.6492 45.7035V45.7035C30.6492 45.7035 30.7526 47.5804 30.8904 49.6745C32.4308 49.7013 33.9698 49.5644 35.4818 49.2661C35.4427 49.0477 35.4427 48.8241 35.4818 48.6057C35.7316 46.9808 36.4208 44.0526 36.5586 42.167C37.552 41.2297 38.3948 40.1421 39.0567 38.9434V38.9434L39.005 39.3257C38.5313 43.0273 37.5406 46.9808 36.9376 48.0757C36.7424 48.4381 36.5021 48.7739 36.2226 49.0749C39.3408 48.3371 42.2626 46.924 44.7855 44.9336C47.3083 42.9433 49.3718 40.4233 50.8329 37.5484C52.2941 34.6735 53.1179 31.5124 53.2472 28.2843C53.3765 25.0563 52.8083 21.8385 51.5819 18.854V18.854ZM50.3156 22.1472C49.9366 22.5208 49.1527 22.7728 49.0235 21.6432C48.8942 20.5136 48.8598 19.7229 48.8598 19.7229C48.8598 19.7229 47.1972 16.7425 46.577 16.7078C45.9568 16.673 41.5549 19.7229 40.3919 21.0524C39.3841 22.1733 39.1859 22.0951 39.1859 24.0675C39.1859 25.5534 39.3755 31.1666 39.2721 35.459L32.2514 37.3446C30.0448 37.9834 27.8007 38.4825 25.5323 38.8391L24.6709 33.7733H24.5503L22.3364 22.3297C22.3364 22.3297 19.0543 21.0784 17.8483 20.7396C17.2821 20.4897 16.6568 20.4084 16.0462 20.5054C15.4356 20.6024 14.8653 20.8736 14.4026 21.287C13.9306 21.7039 13.5531 22.2185 13.296 22.7958C13.0388 23.373 12.908 23.9994 12.9124 24.6323C13.0945 25.0362 13.2331 25.4585 13.3258 25.8922C13.3689 26.3093 12.2921 26.2659 11.603 26.2659C10.9138 26.2659 10.8105 25.0146 11.3532 23.5462C11.7766 22.417 12.3013 21.3292 12.921 20.2964C13.387 19.3738 13.9881 18.5273 14.7041 17.7852C14.7041 17.7852 14.8247 17.4898 15.7809 17.5767C16.7371 17.6636 22.0521 17.9503 22.0521 17.9503L22.0952 15.9779C27.8722 15.1733 33.6987 14.7842 39.5305 14.8135C39.5305 15.3436 39.5305 15.8736 39.5305 16.4037C41.7394 15.3869 44.118 14.7974 46.5425 14.6658C46.6723 14.6625 46.8008 14.6917 46.9166 14.7509C47.0323 14.81 47.1317 14.8972 47.2058 15.0047C47.4987 15.3783 49.2819 17.6115 49.4886 17.933C50.0677 18.7677 50.5942 19.6383 51.065 20.5397C50.9037 21.1104 50.6505 21.6505 50.3156 22.1385V22.1472Z" fill="#FDC305"/>
<path d="M48.6363 16.8294C49.0411 17.3508 49.3943 17.8113 49.4977 17.9503C50.0767 18.7851 50.6033 19.6557 51.0741 20.5571C50.9102 21.1091 50.6601 21.6312 50.3333 22.1038C49.9542 22.4774 49.1703 22.7294 49.0411 21.5998C48.9119 20.4702 48.8602 19.7229 48.8602 19.7229C48.8602 19.7229 47.1977 16.7425 46.5774 16.7078C45.9572 16.673 41.5553 19.7229 40.3924 21.0524C39.3845 22.1733 39.1864 22.0951 39.1864 24.0675C39.1864 25.3709 39.3328 29.8458 39.2984 33.8254C40.8576 33.9992 43.149 34.4337 43.8381 35.459C43.8381 35.459 43.5883 29.2202 50.5659 32.4873C50.5659 32.4873 50.8071 23.9806 60.4378 26.1616C57.1639 22.2844 53.1505 19.1107 48.6363 16.8294V16.8294Z" fill="#F06351"/>
<path d="M39.5654 14.8135C39.6005 9.99865 39.1968 5.1907 38.3594 0.450345C38.3594 0.450345 38.2302 -0.679246 37.61 0.241805C37.0982 1.34291 36.7499 2.51402 36.5763 3.71747C32.8938 3.47914 29.1975 3.57802 25.5327 4.0129C24.8264 1.62338 23.6204 0.537237 23.0432 0.823979C22.4661 1.11072 22.3971 3.67403 22.3971 3.67403L22.1129 15.9779C27.8956 15.1725 33.7279 14.7834 39.5654 14.8135V14.8135Z" fill="#F06351"/>
<path d="M39.0651 38.9434C39.1771 38.0136 39.2374 36.7798 39.2719 35.4156L32.2516 37.3011C30.0459 37.9546 27.8019 38.4682 25.5327 38.8391L26.4889 43.1837C26.4889 43.2793 26.4889 43.3748 26.5492 43.4704C27.8522 44.3231 29.2238 45.0642 30.6494 45.6862C32.7328 44.6815 34.7171 43.4799 36.5757 42.0975V42.1497C37.5647 41.217 38.4044 40.1354 39.0651 38.9434V38.9434Z" fill="#E55645"/>
<path d="M27.5657 12.0938C27.5226 12.0069 28.4271 12.6847 28.7803 12.8932C29.1334 13.1018 29.3057 13.2582 29.3057 13.4059C29.3057 13.5536 29.0818 13.7013 28.7717 13.7013C28.4616 13.7013 27.9792 13.5971 27.9103 13.4754C27.8414 13.3538 28.4271 13.4754 28.72 13.4754H28.9698C28.4395 13.084 27.9667 12.6189 27.5657 12.0938Z" fill="black"/>
<path d="M34.0264 12.1894C34.0264 12.1894 33.165 13.3016 33.0875 13.3538C33.0099 13.4059 32.941 13.6492 33.2511 13.6057C33.6071 13.5521 33.9585 13.4708 34.302 13.3624C34.3968 13.3103 34.3623 13.1887 34.1987 13.206C34.035 13.2234 33.6129 13.2495 33.3373 13.3016L34.0694 12.1981C34.0694 12.1981 34.0953 12.0938 34.0264 12.1894Z" fill="black"/>
<path d="M31.3215 17.4985C31.7208 17.321 32.0508 17.0156 32.2604 16.6296C32.5016 16.0561 32.2604 15.8389 31.8814 15.7607C31.36 15.6647 30.8218 15.7702 30.374 16.0561C30.038 16.3776 30.0811 16.6904 30.374 16.925C30.6649 17.1552 30.9832 17.3478 31.3215 17.4985V17.4985Z" fill="black"/>
<path d="M31.0113 18.5933C30.9124 18.7904 30.778 18.9672 30.615 19.1147C30.3697 19.3138 30.0682 19.4294 29.7537 19.4449C29.2794 19.4918 28.8052 19.3552 28.4271 19.0625C28.2535 18.9601 28.099 18.8278 27.9706 18.6715C27.8844 18.5769 27.7785 18.5027 27.6605 18.4543C27.6605 18.4543 28.3065 22.0255 29.8742 22.599C31.442 23.1725 31.7348 21.9387 31.7779 21.6085C31.8304 20.6196 31.5841 19.6379 31.0716 18.7932C31.0716 18.5325 31.0543 18.7063 31.0113 18.5933Z" fill="#F06351"/>
<path d="M29.5469 19.5839C29.1438 19.5254 28.7566 19.3852 28.4087 19.1716C28.0608 18.9581 27.7594 18.6756 27.5227 18.3413C27.5015 18.3174 27.4898 18.2865 27.4898 18.2544C27.4898 18.2224 27.5015 18.1915 27.5227 18.1676C27.5339 18.156 27.5473 18.1468 27.5621 18.1405C27.5769 18.1343 27.5927 18.131 27.6088 18.131C27.6248 18.131 27.6407 18.1343 27.6555 18.1405C27.6703 18.1468 27.6837 18.156 27.6949 18.1676C27.9081 18.4692 28.1785 18.7252 28.4905 18.9206C28.8025 19.116 29.1499 19.2469 29.5125 19.3058C29.7993 19.2841 30.0769 19.194 30.3225 19.0429C30.5681 18.8919 30.7746 18.6842 30.9251 18.4369L31.0457 18.2718L31.1319 18.463C31.1319 18.463 31.4592 19.1234 31.9933 19.1581C32.5273 19.1929 32.9063 18.7932 33.3973 18.0372C33.4156 18.0096 33.444 17.9904 33.4763 17.9839C33.5086 17.9773 33.5422 17.984 33.5696 18.0025C33.597 18.0209 33.616 18.0496 33.6225 18.0822C33.629 18.1147 33.6223 18.1486 33.604 18.1762C33.0298 19.0278 32.4871 19.4362 31.976 19.4014C31.7785 19.375 31.5893 19.3043 31.4224 19.1946C31.2554 19.0848 31.115 18.9388 31.0113 18.7671C30.8427 19.0045 30.6238 19.201 30.3705 19.3423C30.1172 19.4836 29.8358 19.5661 29.5469 19.5839Z" fill="black"/>
<path d="M31.2352 31.2795C33.0192 31.2795 34.4654 29.8207 34.4654 28.0211C34.4654 26.2215 33.0192 24.7626 31.2352 24.7626C29.4513 24.7626 28.0051 26.2215 28.0051 28.0211C28.0051 29.8207 29.4513 31.2795 31.2352 31.2795Z" fill="#FDC305"/>
<path d="M35.5163 25.3709L32.8202 26.5092L33.8108 21.6172L27.3504 30.0978L30.0465 28.9595L29.0559 33.8602L35.5163 25.3709ZM29.1507 28.6988L32.734 23.998L32.0363 27.4737L33.7591 26.7611L30.1499 31.4707L30.8476 27.995L29.1507 28.6988Z" fill="#111111"/>
<path d="M27.9447 27.4215C28.4775 27.4215 28.9095 26.9858 28.9095 26.4483C28.9095 25.9109 28.4775 25.4751 27.9447 25.4751C27.4119 25.4751 26.9799 25.9109 26.9799 26.4483C26.9799 26.9858 27.4119 27.4215 27.9447 27.4215Z" fill="#111111"/>
<path d="M33.5612 30.9493C33.9371 30.9493 34.2417 30.642 34.2417 30.2629C34.2417 29.8838 33.9371 29.5764 33.5612 29.5764C33.1854 29.5764 32.8807 29.8838 32.8807 30.2629C32.8807 30.642 33.1854 30.9493 33.5612 30.9493Z" fill="#111111"/>
<path d="M34.3882 29.0638C34.5547 29.0638 34.6897 28.9276 34.6897 28.7597C34.6897 28.5917 34.5547 28.4555 34.3882 28.4555C34.2217 28.4555 34.0867 28.5917 34.0867 28.7597C34.0867 28.9276 34.2217 29.0638 34.3882 29.0638Z" fill="#111111"/>
<path d="M39.5224 16.3863C37.9674 17.8002 36.5029 19.3123 35.1377 20.9133C33.7778 22.5028 32.2433 23.9312 30.5635 25.171C30.374 24.7105 29.1594 23.8503 29.1594 23.8503C29.1594 23.8503 26.4545 21.9821 24.6799 20.5136C23.7207 19.7077 22.8169 18.8368 21.9751 17.9069L20.2522 17.8113C22.7392 21.4757 26.3826 24.183 30.5893 25.4925C31.3302 25.3709 33.4148 23.8677 34.974 22.6425C36.8187 21.0601 38.5461 19.3437 40.1426 17.5072C40.5717 16.9928 40.9044 16.4039 41.1246 15.7693C40.1426 16.0995 39.5224 16.3863 39.5224 16.3863Z" fill="#F06351"/>
<path d="M22.3368 22.3297C22.3368 22.3297 19.0548 21.0784 17.8488 20.7396C17.2825 20.4897 16.6572 20.4084 16.0467 20.5054C15.4361 20.6024 14.8658 20.8736 14.4031 21.287C13.931 21.7039 13.5536 22.2185 13.2964 22.7958C13.0393 23.373 12.9084 23.9994 12.9128 24.6323C13.0949 25.0362 13.2335 25.4585 13.3263 25.8922C13.3694 26.3093 12.2926 26.2659 11.6034 26.2659C10.9143 26.2659 10.8109 25.0146 11.3536 23.5462C11.777 22.417 12.3018 21.3292 12.9214 20.2964C8.22664 22.7641 0 28.4642 0 28.4642C2.35316 28.3211 4.71429 28.3909 7.0551 28.6728C11.5776 29.1333 11.3622 32.7306 11.3622 32.7306C12.9529 32.2883 14.574 31.9659 16.2121 31.7661C18.0383 31.6445 18.1675 33.6082 18.1675 33.6082L18.6241 36.9622C19.3173 36.2057 20.0819 35.5189 20.9069 34.9116C21.9703 34.0529 23.3243 33.6476 24.6799 33.782V33.782L22.3368 22.3297Z" fill="#F06351"/>
<path d="M73.7899 34.4945C72.9025 33.1681 72.4782 31.5814 72.584 29.9848V23.468C72.472 21.8596 72.8899 20.2589 73.7727 18.9148C74.5709 17.8779 75.9348 17.3624 77.8643 17.3682C79.7938 17.3739 81.1002 17.8287 81.7836 18.7324C82.6168 19.8522 83.0234 21.2368 82.9292 22.6338V24.1631H79.3631V22.5035C79.3583 22.0668 79.3208 21.6311 79.2511 21.2001C79.208 20.8881 79.066 20.5985 78.8462 20.3746C78.7106 20.2573 78.5531 20.1684 78.3831 20.1132C78.213 20.058 78.0337 20.0376 77.8557 20.0531C77.6 20.0146 77.3388 20.0565 77.1076 20.1731C76.8764 20.2898 76.6864 20.4754 76.5636 20.7048C76.3371 21.315 76.2374 21.9657 76.2707 22.6164V30.8885C76.2314 31.5435 76.3465 32.1986 76.6066 32.8001C76.7309 33.0171 76.9153 33.1927 77.1372 33.3054C77.3591 33.4181 77.6088 33.463 77.8557 33.4344C78.0982 33.469 78.3454 33.4255 78.5619 33.31C78.7785 33.1946 78.9533 33.0131 79.0616 32.7914C79.27 32.1801 79.3606 31.5342 79.3286 30.8885V29.1507H82.8948V30.6539C82.9997 32.0715 82.6263 33.4832 81.8353 34.6596C81.0772 35.6154 79.7679 36.0846 77.9073 36.0846C76.0467 36.0846 74.591 35.5633 73.7899 34.4945Z" fill="#111111"/>
<path d="M87.788 17.6201H91.871L95.3165 35.8674H91.9227L91.3111 31.8356H88.4513L87.7622 35.8413H84.3166L87.788 17.6201ZM90.9321 29.5417L89.8467 22.208L88.77 29.5417H90.9321Z" fill="#111111"/>
<path d="M97.9615 20.3659H95.1706V17.6201H104.405V20.3659H101.648V35.8413H97.9529L97.9615 20.3659Z" fill="#111111"/>
<path d="M111.65 17.6201H118.653V19.5144H114.174V25.536H117.809V27.3346H114.174V34.0166H118.696V35.8413H111.65V17.6201Z" fill="#444444"/>
<path d="M120.729 17.6201H122.452L127.62 29.7241V17.6201H129.722V35.8674H128.111L122.943 23.4245V35.8413H120.807L120.729 17.6201Z" fill="#444444"/>
<path d="M132.505 17.6201H139.499V19.5144H135.02V25.536H138.69V27.3346H135.055V34.0166H139.551V35.8413H132.505V17.6201Z" fill="#444444"/>
<path d="M141.576 17.6201H145.211C146.643 17.5039 148.07 17.9075 149.234 18.7584C150.095 19.5144 150.517 20.7482 150.517 22.46C150.517 24.7771 149.773 26.1935 148.286 26.709L150.87 35.8413H148.424L146.055 27.2912H144.1V35.8413H141.576V17.6201ZM145.021 25.4404C145.851 25.5214 146.681 25.2858 147.347 24.78C147.618 24.4569 147.82 24.0812 147.942 23.6763C148.063 23.2713 148.101 22.8456 148.053 22.4253C148.071 21.8357 147.986 21.2477 147.804 20.6874C147.73 20.4808 147.615 20.2913 147.467 20.1301C147.319 19.969 147.141 19.8393 146.942 19.749C146.383 19.5176 145.78 19.4137 145.176 19.4449H144.065V25.4751L145.021 25.4404Z" fill="#444444"/>
<path d="M153.911 34.4945C153.088 33.0926 152.707 31.4714 152.817 29.8458V23.7634C152.788 22.5896 152.933 21.418 153.248 20.2877C153.497 19.438 154.026 18.6993 154.747 18.1936C155.618 17.6642 156.626 17.41 157.641 17.4637C158.298 17.4007 158.961 17.4832 159.582 17.7053C160.204 17.9274 160.771 18.2839 161.242 18.7497C162.068 19.9176 162.459 21.3426 162.344 22.7728V23.4506H159.976V22.8858C159.992 22.2103 159.94 21.5348 159.821 20.8699C159.742 20.4437 159.509 20.0626 159.166 19.8011C158.719 19.5349 158.202 19.4108 157.684 19.4449C157.122 19.3963 156.562 19.5709 156.125 19.9315C155.768 20.2734 155.534 20.7261 155.462 21.2175C155.353 21.9332 155.304 22.657 155.315 23.3811V30.1499C155.247 31.1785 155.421 32.2088 155.824 33.1564C156.057 33.4478 156.354 33.6814 156.691 33.8395C157.028 33.9975 157.396 34.0757 157.768 34.0682C158.139 34.0606 158.504 33.9675 158.835 33.7959C159.165 33.6243 159.452 33.3788 159.674 33.0782C160.089 32.076 160.269 30.9905 160.2 29.9066V28.6206H157.908V26.822H162.474V35.8413H160.914L160.665 33.7472C160.467 34.4429 160.042 35.0508 159.459 35.472C158.876 35.8933 158.168 36.103 157.452 36.0672C156.778 36.1272 156.1 36.0144 155.481 35.7395C154.862 35.4645 154.322 35.0363 153.911 34.4945V34.4945Z" fill="#444444"/>
<path d="M167.711 29.4113L163.809 17.6201H166.152L168.917 26.4136L171.639 17.6201H174.008L170.132 29.4113V35.8413H167.72L167.711 29.4113Z" fill="#444444"/>
</g>
<defs>
<clipPath id="clip0_1_2">
<rect width="174" height="50" fill="white"/>
</clipPath>
</defs>
</svg>
